<svg xmlns="http://www.w3.org/2000/svg" width="1000" height="1000">
  <path style="fill:#ffc62e" d="m166.664 34.89-7.763 13.447 1.937 3.357a5.05 5.05 0 0 0 4.377 2.526h3.882l8.085-13.997c-.934-1.524-1.838-3.32-2.351-5.333z" transform="translate(-3190.867 -202.654)scale(21.15922)"/>
  <path style="fill:#85c124" d="m191.902 21.443-2.362 4.092a8.73 8.73 0 0 1 2.388 5.987c0 3.905-1.79 7.242-3.423 9.696s-3.299 4.118-3.299 4.118c-2.052 2.055-2.06 2.346-4.088 0 0 0-.788-.787-1.811-2.077l-6.329 10.961h10.678a5.04 5.04 0 0 0 4.363-2.518l9.223-15.976a5.03 5.03 0 0 0 0-5.034z" transform="translate(-3190.867 -202.654)scale(21.15922)"/>
  <path style="fill:#666870" d="m179.771 12.198-11.166 19.33h5.792v-.007c0-4.806 3.958-8.765 8.765-8.765a8.65 8.65 0 0 1 3.643.803l3.162-5.478-1.944-3.362a5.05 5.05 0 0 0-4.37-2.52z" transform="translate(-3190.867 -202.654)scale(21.15922)"/>
  <path style="fill:#177bba" d="M165.215 12.198a5.04 5.04 0 0 0-4.367 2.521l-9.225 15.977a5.03 5.03 0 0 0 0 5.027l5.343 9.253 18.924-32.778Z" transform="translate(-3190.867 -202.654)scale(21.15922)"/>
  <path d="M183.162 25.645a5.876 5.876 0 0 0-5.876 5.876v.008c0 .567.055 1.135.154 1.697q.152.844.418 1.664c.27.837.62 1.648 1.01 2.416a24 24 0 0 0 2.004 3.241c1.224 1.68 2.29 2.747 2.29 2.747s5.877-5.882 5.877-11.773q0-.44-.063-.865a5.84 5.84 0 0 0-.97-2.464 5.86 5.86 0 0 0-4.844-2.547m0 2.97a3 3 0 0 1 .677.08 2.905 2.905 0 0 1 2.228 2.826v.028a2.9 2.9 0 0 1-1.428 2.474 2.9 2.9 0 0 1-1.477.403 2.905 2.905 0 0 1-2.905-2.897v-.007a2.905 2.905 0 0 1 2.905-2.905z" style="fill:#ff4c52" transform="translate(-3190.867 -202.654)scale(21.15922)"/>
</svg>
